<?xml version="1.0" encoding="UTF-8" standalone="no"?>
<!-- Created with Inkscape (http://www.inkscape.org/) -->

<svg
   xmlns:dc="http://purl.org/dc/elements/1.1/"
   xmlns:cc="http://creativecommons.org/ns#"
   xmlns:rdf="http://www.w3.org/1999/02/22-rdf-syntax-ns#"
   xmlns:svg="http://www.w3.org/2000/svg"
   xmlns="http://www.w3.org/2000/svg"
   xmlns:sodipodi="http://sodipodi.sourceforge.net/DTD/sodipodi-0.dtd"
   xmlns:inkscape="http://www.inkscape.org/namespaces/inkscape"
   width="210mm"
   height="297mm"
   viewBox="0 0 210 297"
   version="1.1"
   id="svg392"
   inkscape:version="0.92.4 (5da689c313, 2019-01-14)"
   sodipodi:docname="DeteccaoAids.svg">
  <defs
     id="defs386" />
  <sodipodi:namedview
     id="base"
     pagecolor="#ffffff"
     bordercolor="#666666"
     borderopacity="1.0"
     inkscape:pageopacity="0.0"
     inkscape:pageshadow="2"
     inkscape:zoom="0.35"
     inkscape:cx="-45.714286"
     inkscape:cy="560"
     inkscape:document-units="mm"
     inkscape:current-layer="layer1"
     showgrid="false"
     inkscape:window-width="1366"
     inkscape:window-height="705"
     inkscape:window-x="-8"
     inkscape:window-y="-8"
     inkscape:window-maximized="1" />
  <metadata
     id="metadata389">
    <rdf:RDF>
      <cc:Work
         rdf:about="">
        <dc:format>image/svg+xml</dc:format>
        <dc:type
           rdf:resource="http://purl.org/dc/dcmitype/StillImage" />
        <dc:title></dc:title>
      </cc:Work>
    </rdf:RDF>
  </metadata>
  <g
     inkscape:label="Camada 1"
     inkscape:groupmode="layer"
     id="layer1">
    <g
       id="g698"
       transform="matrix(1.1423059,0,0,1.1569276,398.78476,38.024304)">
      <path
         inkscape:connector-curvature="0"
         id="path68"
         style="fill:none;stroke:#000000;stroke-width:0.18273889;stroke-linecap:butt;stroke-linejoin:miter;stroke-miterlimit:4;stroke-dasharray:none;stroke-opacity:1"
         d="m -342.67838,94.812494 h 169.79723 v -120.25594 h -169.79723 z" />
      <text
         id="text74"
         style="font-variant:normal;font-weight:300;font-stretch:condensed;font-size:2.46944427px;font-family:'Fira Sans Condensed Light';-inkscape-font-specification:FiraSansCondensed-Light;writing-mode:lr-tb;fill:#000000;fill-opacity:1;fill-rule:nonzero;stroke:none;stroke-width:0.35277775"
         x="-339.74429"
         y="88.787865">
        <tspan
           id="tspan70"
           sodipodi:role="line"
           y="88.787865"
           x="-339.74429 -338.76392 -337.54401 -336.30188 -335.58575 -334.43991 -333.97568 -333.38794 -332.23718 -331.65933 -330.41721 -329.27136 -328.02924 -327.56006 -326.97232 -325.82156 -325.24371 -324.24854 -323.29828 -322.15247 -321.54498 -320.44113 -319.29037 -318.71252 -317.71982 -317.13208 -315.91217 -314.10208 -313.63287 -313.04514 -311.89438 -311.29184 -309.63239"
           style="stroke-width:0.35277775">Fonte: Sinan; Siscel/Siclom; SIM.</tspan>
        <tspan
           id="tspan72"
           sodipodi:role="line"
           y="92.316704"
           x="-339.74429 -338.31696 -337.09705 -336.36115 -335.21533 -334.75107 -334.16333 -333.47437 -332.51871 -331.82971 -331.242 -330.06653 -328.92072 -327.92554 -326.70563 -325.71045 -325.12271 -323.88058 -322.66068 -321.92477 -321.34692 -320.14185 -319.14911 -318.0033 -316.76117 -315.54126 -314.54608 -313.95834 -312.71622 -311.49631 -310.9086 -309.75781 -309.17996 -307.93784 -306.79202 -305.5499 -304.96216 -303.81635 -303.22861 -302.07785 -301.5 -300.50482 -299.55432 -298.40851 -297.80103 -296.69717 -295.54642 -294.96857 -293.97586 -293.38812 -292.16821 -290.35812 -289.77039 -288.62457 -287.90842 -286.7626 -286.17487 -285.13773 -284.02151 -283.02386 -281.81879 -280.76431 -279.7247 -278.71964 -277.5343 -276.65271 -275.5365 -275.06732 -274.47958 -273.23746 -272.01755 -271.42984 -270.27905 -269.67651 -268.01706 -267.5528 -266.96509 -265.72293 -264.57712 -263.98938 -262.98434 -261.77924 -260.57416 -259.36908 -258.78134 -257.63553 -257.04779 -256.04272 -254.85739 -253.97578 -252.8201"
           style="stroke-width:0.35277775">Nota: (*) Casos notifcados no Sinan e Siscel/Siclom até 30/06/2019; no SIM, de 2000 a 2018.</tspan>
      </text>
      <path
         inkscape:connector-curvature="0"
         id="path86"
         style="fill:#ffffff;fill-opacity:1;fill-rule:nonzero;stroke:none;stroke-width:0.35277775"
         d="m -339.15519,82.494904 h 162.43264 V -22.526327 h -162.43264 z" />
      <g
         transform="matrix(0.35277777,0,0,-0.35277777,-325.9759,54.857629)"
         id="g88">
        <path
           inkscape:connector-curvature="0"
           id="path90"
           style="fill:none;stroke:#f2f2f2;stroke-width:0.065;stroke-linecap:butt;stroke-linejoin:round;stroke-miterlimit:10;stroke-dasharray:none;stroke-opacity:1"
           d="M 0,0 H 387.617 M 0,53.314 H 387.617 M 0,106.693 H 387.617 M 0,160.006 H 387.617 M 0,213.385 h 387.617" />
      </g>
      <path
         inkscape:connector-curvature="0"
         id="path92"
         style="fill:#9bbb59;fill-opacity:1;fill-rule:nonzero;stroke:none;stroke-width:0.35277775"
         d="m -324.74421,65.596854 h 2.48637 v 8.080375 h -2.48637 z m 12.43118,-0.345371 h 2.48638 v 8.425392 h -2.48638 z m 12.43118,0.50659 h 2.48638 v 7.919156 h -2.48638 z m 12.43083,-0.575733 h 2.48638 v 8.494535 h -2.48638 z m 12.43119,-0.644525 h 2.48637 v 9.13906 h -2.48637 z m 12.43118,-0.04622 h 2.48638 v 9.185275 h -2.48638 z m 12.43118,-0.506235 h 2.48638 v 9.691864 h -2.48638 z m 12.43118,-0.161219 h 2.48638 v 9.852729 h -2.48638 z m 12.43119,-0.50659 h 2.48637 V 73.67687 h -2.48637 z m 12.43118,0.253294 h 2.48638 V 73.67687 h -2.48638 z m 12.43118,-0.989894 h 2.48638 V 73.67687 h -2.48638 z" />
      <path
         inkscape:connector-curvature="0"
         id="path94"
         style="fill:#4bacc6;fill-opacity:1;fill-rule:nonzero;stroke:none;stroke-width:0.35277775"
         d="m -322.25819,60.094931 h 2.48638 v 13.582298 h -2.48638 z m 12.43119,0.345372 h 2.48637 v 13.236926 h -2.48637 z m 12.43118,-1.42734 h 2.48638 v 14.664266 h -2.48638 z m 12.43118,2.071865 h 2.48638 v 12.592401 h -2.48638 z m 12.43118,-0.276225 h 2.48638 v 12.868626 h -2.48638 z m 12.43119,2.025647 h 2.48638 v 10.842625 h -2.48638 z m 12.43118,1.1049 h 2.48638 v 9.737725 h -2.48638 z m 12.43118,1.151115 h 2.48638 v 8.58661 h -2.48638 z m 12.43083,0 h 2.48638 v 8.58661 h -2.48638 z m 12.43118,0.989893 h 2.48638 v 7.596717 h -2.48638 z m 12.43118,0.55245 h 2.48638 v 7.044267 h -2.48638 z" />
      <path
         inkscape:connector-curvature="0"
         id="path96"
         style="fill:#c0504d;fill-opacity:1;fill-rule:nonzero;stroke:none;stroke-width:0.35277775"
         d="m -319.77181,-7.4708299 h 2.48638 V 73.676875 h -2.48638 z m 12.43118,0.92075 h 2.48638 V 73.676875 h -2.48638 z m 12.43119,0.506588 h 2.48637 V 73.676875 h -2.48637 z m 12.43118,-3.130902 h 2.48638 V 73.676875 h -2.48638 z m 12.43083,1.197327 h 2.48638 V 73.677229 h -2.48638 z m 12.43118,1.28905 h 2.48638 V 73.676875 h -2.48638 z m 12.43118,2.877609 h 2.48638 V 73.677229 h -2.48638 z m 12.43118,2.92346899 h 2.48638 V 73.676875 h -2.48638 z m 12.43119,3.49920201 h 2.48637 V 73.676875 h -2.48637 z m 12.43118,2.186871 h 2.48638 V 73.676875 h -2.48638 z m 12.43118,1.795637 h 2.48638 V 73.676875 h -2.48638 z" />
      <path
         inkscape:connector-curvature="0"
         id="path98"
         style="fill:#8064a2;fill-opacity:1;fill-rule:nonzero;stroke:none;stroke-width:0.35277775"
         d="m -317.28543,51.945413 h 2.48638 v 21.731462 h -2.48638 z m 12.43083,0 h 2.48637 v 21.731462 h -2.48637 z m 12.43118,0.345368 h 2.48638 v 21.386094 h -2.48638 z m 12.43118,0.299157 h 2.48638 v 21.086937 h -2.48638 z m 12.43119,0.230365 h 2.48637 v 20.856572 h -2.48637 z m 12.43118,-0.782815 h 2.48638 v 21.639387 h -2.48638 z m 12.43118,0.04622 h 2.48638 v 21.593526 h -2.48638 z m 12.43118,1.565275 h 2.48638 V 73.67688 h -2.48638 z m 12.43118,0.276225 h 2.48638 V 73.67688 h -2.48638 z m 12.43119,1.726493 h 2.48637 V 73.67688 h -2.48637 z m 12.43083,1.61149 h 2.48638 V 73.67688 h -2.48638 z" />
      <g
         transform="matrix(0.35277777,0,0,-0.35277777,-325.9874,73.677018)"
         id="g100">
        <path
           inkscape:connector-curvature="0"
           id="path102"
           style="fill:none;stroke:#d9d9d9;stroke-width:0.39199999;stroke-linecap:butt;stroke-linejoin:round;stroke-miterlimit:10;stroke-dasharray:none;stroke-opacity:1"
           d="M 0,0 H 387.617" />
      </g>
      <g
         transform="matrix(0.35277777,0,0,-0.35277777,-319.77185,57.976923)"
         id="g104">
        <path
           inkscape:connector-curvature="0"
           id="path106"
           style="fill:none;stroke:#ffc000;stroke-width:1.17499995;stroke-linecap:round;stroke-linejoin:round;stroke-miterlimit:10;stroke-dasharray:none;stroke-opacity:1"
           d="m 0,0 35.238,3.785 35.238,8.744 35.238,10.702 35.238,9.984 35.237,31.388 35.238,56.38 35.238,40.655 35.238,13.442 35.238,17.489 35.238,-2.676" />
      </g>
      <text
         id="text196"
         style="font-variant:normal;font-weight:bold;font-stretch:normal;font-size:2.30205131px;font-family:Calibri;-inkscape-font-specification:Calibri-Bold;writing-mode:lr-tb;fill:#ffffff;fill-opacity:1;fill-rule:nonzero;stroke:none;stroke-width:0.35277775"
         transform="rotate(-90)"
         x="-69.687775"
         y="-322.71609">
        <tspan
           id="tspan108"
           sodipodi:role="line"
           y="-322.71609"
           x="-69.687775 -68.513725 -67.915192"
           style="stroke-width:0.35277775">2,1</tspan>
        <tspan
           id="tspan110"
           sodipodi:role="line"
           y="-310.285"
           x="-69.349373 -68.175323 -67.57679"
           style="stroke-width:0.35277775">2,2</tspan>
        <tspan
           id="tspan112"
           sodipodi:role="line"
           y="-297.85394"
           x="-69.85582 -68.681778 -68.083244"
           style="stroke-width:0.35277775">2,1</tspan>
        <tspan
           id="tspan114"
           sodipodi:role="line"
           y="-285.42285"
           x="-69.275703 -68.101662 -67.503128"
           style="stroke-width:0.35277775">2,3</tspan>
        <tspan
           id="tspan116"
           sodipodi:role="line"
           y="-272.99179"
           x="-68.642639 -67.468597 -66.870064"
           style="stroke-width:0.35277775">2,4</tspan>
        <tspan
           id="tspan118"
           sodipodi:role="line"
           y="-260.5607"
           x="-68.587387 -67.413353 -66.814812"
           style="stroke-width:0.35277775">2,4</tspan>
        <tspan
           id="tspan120"
           sodipodi:role="line"
           y="-248.12964"
           x="-68.083244 -66.909195 -66.310661"
           style="stroke-width:0.35277775">2,6</tspan>
        <tspan
           id="tspan122"
           sodipodi:role="line"
           y="-235.69855"
           x="-67.93821 -66.764175 -66.165634"
           style="stroke-width:0.35277775">2,6</tspan>
        <tspan
           id="tspan124"
           sodipodi:role="line"
           y="-223.26747"
           x="-67.415649 -66.2416 -65.643066"
           style="stroke-width:0.35277775">2,8</tspan>
        <tspan
           id="tspan126"
           sodipodi:role="line"
           y="-210.8364"
           x="-67.680389 -66.50634 -65.907806"
           style="stroke-width:0.35277775">2,7</tspan>
        <tspan
           id="tspan128"
           sodipodi:role="line"
           y="-198.40532"
           x="-66.678993 -65.504944 -64.90641"
           style="stroke-width:0.35277775">2,9</tspan>
        <tspan
           id="tspan130"
           sodipodi:role="line"
           y="-320.22989"
           x="-64.19278 -63.018726 -62.420193"
           style="stroke-width:0.35277775">3,6</tspan>
        <tspan
           id="tspan132"
           sodipodi:role="line"
           y="-307.7988"
           x="-64.533478 -63.359432 -62.760899"
           style="stroke-width:0.35277775">3,5</tspan>
        <tspan
           id="tspan134"
           sodipodi:role="line"
           y="-295.36774"
           x="-63.126919 -61.952877 -61.354343"
           style="stroke-width:0.35277775">3,9</tspan>
        <tspan
           id="tspan136"
           sodipodi:role="line"
           y="-282.93665"
           x="-65.178055 -64.004013 -63.405476"
           style="stroke-width:0.35277775">3,3</tspan>
        <tspan
           id="tspan138"
           sodipodi:role="line"
           y="-270.50558"
           x="-64.913315 -63.739269 -63.140736"
           style="stroke-width:0.35277775">3,4</tspan>
        <tspan
           id="tspan140"
           sodipodi:role="line"
           y="-258.07449"
           x="-66.943733 -65.769684 -65.17115"
           style="stroke-width:0.35277775">2,9</tspan>
        <tspan
           id="tspan142"
           sodipodi:role="line"
           y="-245.64342"
           x="-68.05101 -66.876968 -66.278435"
           style="stroke-width:0.35277775">2,6</tspan>
        <tspan
           id="tspan144"
           sodipodi:role="line"
           y="-233.21234"
           x="-69.195137 -68.021088 -67.422554"
           style="stroke-width:0.35277775">2,3</tspan>
        <tspan
           id="tspan146"
           sodipodi:role="line"
           y="-220.78127"
           x="-69.185921 -68.011887 -67.413353"
           style="stroke-width:0.35277775">2,3</tspan>
        <tspan
           id="tspan148"
           sodipodi:role="line"
           y="-208.35019"
           x="-70.175812 -69.001762 -68.403229"
           style="stroke-width:0.35277775">2,0</tspan>
        <tspan
           id="tspan150"
           sodipodi:role="line"
           y="-195.91911"
           x="-70.744415 -69.570374 -68.97184"
           style="stroke-width:0.35277775">1,9</tspan>
        <tspan
           id="tspan152"
           sodipodi:role="line"
           y="-317.74365"
           x="2.2052929 3.3793385 4.5533838 5.1519213"
           style="stroke-width:0.35277775">21,6</tspan>
        <tspan
           id="tspan154"
           sodipodi:role="line"
           y="-305.31259"
           x="1.2867709 2.4608223 3.634866 4.2333994"
           style="stroke-width:0.35277775">21,3</tspan>
        <tspan
           id="tspan156"
           sodipodi:role="line"
           y="-292.8815"
           x="0.78492844 1.958974 3.1330197 3.7315495"
           style="stroke-width:0.35277775">21,2</tspan>
        <tspan
           id="tspan158"
           sodipodi:role="line"
           y="-280.45044"
           x="3.9180176 5.092061 6.2661142 6.8646441"
           style="stroke-width:0.35277775">22,0</tspan>
        <tspan
           id="tspan160"
           sodipodi:role="line"
           y="-268.01935"
           x="2.7140477 3.8880932 5.0621367 5.6606703"
           style="stroke-width:0.35277775">21,7</tspan>
        <tspan
           id="tspan162"
           sodipodi:role="line"
           y="-255.58829"
           x="1.4364063 2.6104519 3.7844975 4.3830347"
           style="stroke-width:0.35277775">21,4</tspan>
        <tspan
           id="tspan164"
           sodipodi:role="line"
           y="-243.1572"
           x="-1.4572686 -0.28322494 0.89082253 1.4893543"
           style="stroke-width:0.35277775">20,6</tspan>
        <tspan
           id="tspan166"
           sodipodi:role="line"
           y="-230.72614"
           x="-4.3762732 -3.2022254 -2.0281799 -1.4296502"
           style="stroke-width:0.35277775">19,8</tspan>
        <tspan
           id="tspan168"
           sodipodi:role="line"
           y="-218.29504"
           x="-7.8661814 -6.6921358 -5.5180902 -4.9195566"
           style="stroke-width:0.35277775">18,9</tspan>
        <tspan
           id="tspan170"
           sodipodi:role="line"
           y="-205.86397"
           x="-10.071546 -8.8975 -7.7234545 -7.1249208"
           style="stroke-width:0.35277775">18,3</tspan>
        <tspan
           id="tspan172"
           sodipodi:role="line"
           y="-193.43289"
           x="-11.860242 -10.686196 -9.5121469 -8.9136171"
           style="stroke-width:0.35277775">17,8</tspan>
        <tspan
           id="tspan174"
           sodipodi:role="line"
           y="-315.25745"
           x="-56.04121 -54.867161 -54.268627"
           style="stroke-width:0.35277775">5,8</tspan>
        <tspan
           id="tspan176"
           sodipodi:role="line"
           y="-302.82639"
           x="-56.038914 -54.864864 -54.266331"
           style="stroke-width:0.35277775">5,8</tspan>
        <tspan
           id="tspan178"
           sodipodi:role="line"
           y="-290.39529"
           x="-56.398029 -55.22398 -54.625446"
           style="stroke-width:0.35277775">5,7</tspan>
        <tspan
           id="tspan180"
           sodipodi:role="line"
           y="-277.9642"
           x="-56.694988 -55.520947 -54.922405"
           style="stroke-width:0.35277775">5,6</tspan>
        <tspan
           id="tspan182"
           sodipodi:role="line"
           y="-265.53314"
           x="-56.922894 -55.748852 -55.150318"
           style="stroke-width:0.35277775">5,5</tspan>
        <tspan
           id="tspan184"
           sodipodi:role="line"
           y="-253.10207"
           x="-56.14941 -54.975361 -54.376827"
           style="stroke-width:0.35277775">5,7</tspan>
        <tspan
           id="tspan186"
           sodipodi:role="line"
           y="-240.67101"
           x="-56.188541 -55.0145 -54.415966"
           style="stroke-width:0.35277775">5,7</tspan>
        <tspan
           id="tspan188"
           sodipodi:role="line"
           y="-228.23991"
           x="-57.751637 -56.577587 -55.979053"
           style="stroke-width:0.35277775">5,3</tspan>
        <tspan
           id="tspan190"
           sodipodi:role="line"
           y="-215.80882"
           x="-58.039387 -56.865345 -56.266811"
           style="stroke-width:0.35277775">5,2</tspan>
        <tspan
           id="tspan192"
           sodipodi:role="line"
           y="-203.37775"
           x="-59.749813 -58.575771 -57.977238"
           style="stroke-width:0.35277775">4,8</tspan>
        <tspan
           id="tspan194"
           sodipodi:role="line"
           y="-190.94669"
           x="-61.361256 -60.187206 -59.588673"
           style="stroke-width:0.35277775">4,4</tspan>
      </text>
      <text
         id="text234"
         style="font-variant:normal;font-weight:normal;font-stretch:normal;font-size:2.30205131px;font-family:Calibri;-inkscape-font-specification:Calibri;writing-mode:lr-tb;fill:#595959;fill-opacity:1;fill-rule:nonzero;stroke:none;stroke-width:0.35277775"
         x="-186.57719"
         y="74.327118">
        <tspan
           id="tspan198"
           y="74.327118"
           x="-186.57719"
           style="stroke-width:0.35277775">-</tspan>
        <tspan
           id="tspan200"
           sodipodi:role="line"
           y="64.91864"
           x="-187.10667 -186.57719 -185.42616 -184.82762 -183.67662 -182.50256"
           style="stroke-width:0.35277775">5.000</tspan>
        <tspan
           id="tspan202"
           sodipodi:role="line"
           y="55.510151"
           x="-187.10667 -186.57719 -185.42616 -184.25211 -183.67662 -182.50256 -181.32852"
           style="stroke-width:0.35277775">10.000</tspan>
        <tspan
           id="tspan204"
           sodipodi:role="line"
           y="46.101665"
           x="-187.10667 -186.57719 -185.42616 -184.25211 -183.67662 -182.50256 -181.32852"
           style="stroke-width:0.35277775">15.000</tspan>
        <tspan
           id="tspan206"
           sodipodi:role="line"
           y="36.69318"
           x="-187.10667 -186.57719 -185.42616 -184.25211 -183.67662 -182.50256 -181.32852"
           style="stroke-width:0.35277775">20.000</tspan>
        <tspan
           id="tspan208"
           sodipodi:role="line"
           y="27.284698"
           x="-187.10667 -186.57719 -185.42616 -184.25211 -183.67662 -182.50256 -181.32852"
           style="stroke-width:0.35277775">25.000</tspan>
        <tspan
           id="tspan210"
           sodipodi:role="line"
           y="17.876213"
           x="-187.10667 -186.57719 -185.42616 -184.25211 -183.67662 -182.50256 -181.32852"
           style="stroke-width:0.35277775">30.000</tspan>
        <tspan
           id="tspan212"
           sodipodi:role="line"
           y="8.4677286"
           x="-187.10667 -186.57719 -185.42616 -184.25211 -183.67662 -182.50256 -181.32852"
           style="stroke-width:0.35277775">35.000</tspan>
        <tspan
           id="tspan214"
           sodipodi:role="line"
           y="-0.94075882"
           x="-187.10667 -186.57719 -185.42616 -184.25211 -183.67662 -182.50256 -181.32852"
           style="stroke-width:0.35277775">40.000</tspan>
        <tspan
           id="tspan216"
           sodipodi:role="line"
           y="-10.349239"
           x="-187.10667 -186.57719 -185.42616 -184.25211 -183.67662 -182.50256 -181.32852"
           style="stroke-width:0.35277775">45.000</tspan>
        <tspan
           id="tspan218"
           sodipodi:role="line"
           y="-19.757719"
           x="-187.10667 -186.57719 -185.42616 -184.25211 -183.67662 -182.50256 -181.32852"
           style="stroke-width:0.35277775">50.000</tspan>
        <tspan
           id="tspan220"
           sodipodi:role="line"
           y="74.324814"
           x="-331.02631 -329.85226 -329.27673"
           style="stroke-width:0.35277775">0,0</tspan>
        <tspan
           id="tspan222"
           sodipodi:role="line"
           y="55.507847"
           x="-331.02631 -329.85226 -329.27673"
           style="stroke-width:0.35277775">5,0</tspan>
        <tspan
           id="tspan224"
           sodipodi:role="line"
           y="36.690876"
           x="-332.19345 -331.01941 -329.86838 -329.29288"
           style="stroke-width:0.35277775">10,0</tspan>
        <tspan
           id="tspan226"
           sodipodi:role="line"
           y="17.873909"
           x="-332.19345 -331.01941 -329.86838 -329.29288"
           style="stroke-width:0.35277775">15,0</tspan>
        <tspan
           id="tspan228"
           sodipodi:role="line"
           y="-0.94305718"
           x="-332.19345 -331.01941 -329.86838 -329.29288"
           style="stroke-width:0.35277775">20,0</tspan>
        <tspan
           id="tspan230"
           sodipodi:role="line"
           y="-19.760023"
           x="-332.19345 -331.01941 -329.86838 -329.29288"
           style="stroke-width:0.35277775">25,0</tspan>
        <tspan
           id="tspan232"
           sodipodi:role="line"
           y="77.315186"
           x="-322.10126 -320.92722 -319.77618 -318.60214 -309.67017 -308.49612 -307.34512 -306.17105 -297.23911 -296.06506 -294.91403 -293.73999 -284.80826 -283.63422 -282.48318 -281.30914 -272.3772 -271.20312 -270.05212 -268.87805 -259.94611 -258.77206 -257.62103 -256.44699 -247.51503 -246.34099 -245.18996 -244.01591 -235.08418 -233.91013 -232.75911 -231.58507 -222.65309 -221.47906 -220.32803 -219.15398 -210.22202 -209.04797 -207.89694 -206.7229 -197.79095 -196.6169 -195.46587 -194.29182"
           style="stroke-width:0.35277775">20082009201020112012201320142015201620172018</tspan>
      </text>
      <text
         id="text238"
         style="font-variant:normal;font-weight:normal;font-stretch:normal;font-size:1.91071498px;font-family:Calibri;-inkscape-font-specification:Calibri;writing-mode:lr-tb;fill:#595959;fill-opacity:1;fill-rule:nonzero;stroke:none;stroke-width:0.35277775"
         transform="rotate(-90)"
         x="-36.348648"
         y="-178.11406">
        <tspan
           id="tspan236"
           sodipodi:role="line"
           y="-178.11406"
           x="-36.348648 -35.105537 -34.092667 -32.573647 -31.629753 -30.962151 -29.94928 -29.511726 -28.498856 -27.554966 -27.094673 -26.288925 -25.367958 -24.631378 -23.618511 -22.881931 -22.421444 -21.408581 -20.464684 -20.02713 -18.830067 -18.346657"
           style="stroke-width:0.35277775">Número de casos de HIV</tspan>
      </text>
      <text
         id="text244"
         style="font-variant:normal;font-weight:normal;font-stretch:normal;font-size:2.69342303px;font-family:Calibri;-inkscape-font-specification:Calibri;writing-mode:lr-tb;fill:#595959;fill-opacity:1;fill-rule:nonzero;stroke:none;stroke-width:0.35277775"
         transform="rotate(-90)"
         x="-64.960938"
         y="-336.2269">
        <tspan
           id="tspan240"
           sodipodi:role="line"
           y="-336.2269"
           x="-64.960938 -63.855824 -62.589916 -61.46191 -60.172565 -59.597256 -58.193981 -56.858852 -56.237209 -54.833935 -53.521969 -52.647144 -51.312008 -50.183468 -49.078625 -47.789562 -46.362316 -45.740673 -44.935329 -43.646267 -43.024624 -41.621349 -40.562298 -39.894863 -39.296925 -37.155655 -35.820255 -34.416981 -32.989735 -32.091747 -30.756618 -29.697834 -29.076191 -27.672916 -26.337788 -25.739849 -24.381557 -23.759914 -22.47084 -21.067566 -19.640324 -18.581539 -17.983597 -16.648468 -16.050529 -13.909257 -12.482015 -11.538239 -10.663411 -9.374341 -8.7526979 -8.1310587 -6.727788 -5.4384413 -4.0351667 -2.7000396 -2.1244571 -0.72118461 0.7060653 1.6498386 2.2477772 3.6060708 4.9643641 6.3223886 7.0129862 8.3712721 9.7295656 11.08786"
           style="stroke-width:0.35277775">Taxa de detecção (aids, menores de 5 anos e mortalidade por 100.000</tspan>
        <tspan
           id="tspan242"
           sodipodi:role="line"
           y="-332.93552"
           x="-59.137753 -57.734478 -56.445408 -55.042133 -54.420757 -53.54594 -52.256863 -50.875408 -50.000858 -48.665462 -47.60667 -47.008739 -45.673603 -45.075665 -43.67239 -42.337261 -41.715618 -40.035191 -39.367222 -37.847862 -37.22649 -35.891361 -33.750092 -33.152149 -31.908867 -30.573734 -29.537846 -28.663021 -27.373951 -25.992764 -25.117939 -23.78281 -22.723751 -22.148174 -20.744896 -19.317654 -18.373871 -17.775936 -16.417641 -15.727052 -14.369027 -13.010732 -11.65244 -11.054502 -9.651227 -8.3621531 -7.3030977 -6.1745558 -5.5531874 -4.149909 -2.7226646 -1.6636132 -1.0656728 0.15445054 0.77582085 1.9730483 3.4002964 4.4593458"
           style="stroke-width:0.35277775">habitantes e de HIV em gestantes por 1.000 nascidos vivos)</tspan>
      </text>
      <path
         inkscape:connector-curvature="0"
         id="path246"
         style="fill:#9bbb59;fill-opacity:1;fill-rule:evenodd;stroke:none;stroke-width:0.35277775"
         d="m -290.02912,79.915754 h 3.68335 v 1.26612 h -3.68335 z" />
      <text
         id="text250"
         style="font-variant:normal;font-weight:normal;font-stretch:normal;font-size:2.30205131px;font-family:Calibri;-inkscape-font-specification:Calibri;writing-mode:lr-tb;fill:#595959;fill-opacity:1;fill-rule:nonzero;stroke:none;stroke-width:0.35277775"
         x="-285.96222"
         y="81.199059">
        <tspan
           id="tspan248"
           sodipodi:role="line"
           y="81.199059"
           x="-285.96222 -284.51193 -283.3609 -282.4631 -281.70343 -280.59845 -279.37836 -278.61868 -277.46765 -276.93817 -275.51093 -274.93539 -273.62299"
           style="stroke-width:0.35277775">Gestante HIV+</tspan>
      </text>
      <path
         inkscape:connector-curvature="0"
         id="path252"
         style="fill:#4bacc6;fill-opacity:1;fill-rule:evenodd;stroke:none;stroke-width:0.35277775"
         d="m -270.00122,79.915754 h 3.68335 v 1.26612 h -3.68335 z" />
      <text
         id="text256"
         style="font-variant:normal;font-weight:normal;font-stretch:normal;font-size:2.30205131px;font-family:Calibri;-inkscape-font-specification:Calibri;writing-mode:lr-tb;fill:#595959;fill-opacity:1;fill-rule:nonzero;stroke:none;stroke-width:0.35277775"
         x="-265.9393"
         y="81.199059">
        <tspan
           id="tspan254"
           sodipodi:role="line"
           y="81.199059"
           x="-265.9393 -264.78827 -264.28183 -263.10779 -262.57831 -261.47333 -260.27625 -259.05615"
           style="stroke-width:0.35277775">&lt; 5 anos</tspan>
      </text>
      <path
         inkscape:connector-curvature="0"
         id="path258"
         style="fill:#c0504d;fill-opacity:1;fill-rule:evenodd;stroke:none;stroke-width:0.35277775"
         d="m -255.68232,79.915754 h 3.68335 v 1.26612 h -3.68335 z" />
      <text
         id="text262"
         style="font-variant:normal;font-weight:normal;font-stretch:normal;font-size:2.30205131px;font-family:Calibri;-inkscape-font-specification:Calibri;writing-mode:lr-tb;fill:#595959;fill-opacity:1;fill-rule:nonzero;stroke:none;stroke-width:0.35277775"
         x="-251.62076"
         y="81.199059">
        <tspan
           id="tspan260"
           sodipodi:role="line"
           y="81.199059"
           x="-251.62076 -250.28557 -249.75609 -248.55902"
           style="stroke-width:0.35277775">Aids</tspan>
      </text>
      <path
         inkscape:connector-curvature="0"
         id="path264"
         style="fill:#8064a2;fill-opacity:1;fill-rule:evenodd;stroke:none;stroke-width:0.35277775"
         d="m -245.18507,79.915754 h 3.68335 v 1.26612 h -3.68335 z" />
      <text
         id="text268"
         style="font-variant:normal;font-weight:normal;font-stretch:normal;font-size:2.30205131px;font-family:Calibri;-inkscape-font-specification:Calibri;writing-mode:lr-tb;fill:#595959;fill-opacity:1;fill-rule:nonzero;stroke:none;stroke-width:0.35277775"
         x="-241.11305"
         y="81.199059">
        <tspan
           id="tspan266"
           sodipodi:role="line"
           y="81.199059"
           x="-241.11305 -239.5937 -238.37361 -237.84413 -237.08447"
           style="stroke-width:0.35277775">Óbito</tspan>
      </text>
      <g
         transform="matrix(0.35277777,0,0,-0.35277777,-233.39841,80.537164)"
         id="g270">
        <path
           inkscape:connector-curvature="0"
           id="path272"
           style="fill:none;stroke:#ffc000;stroke-width:1.17499995;stroke-linecap:round;stroke-linejoin:round;stroke-miterlimit:10;stroke-dasharray:none;stroke-opacity:1"
           d="M 0,0 H 10.441" />
      </g>
      <text
         id="text276"
         style="font-variant:normal;font-weight:normal;font-stretch:normal;font-size:2.30205131px;font-family:Calibri;-inkscape-font-specification:Calibri;writing-mode:lr-tb;fill:#595959;fill-opacity:1;fill-rule:nonzero;stroke:none;stroke-width:0.35277775"
         x="-229.32869"
         y="81.199059">
        <tspan
           id="tspan274"
           sodipodi:role="line"
           y="81.199059"
           x="-229.32869 -227.90143 -227.30287 -226.01373"
           style="stroke-width:0.35277775">HIV+</tspan>
      </text>
    </g>
  </g>
</svg>
