<?xml version="1.0" encoding="UTF-8" standalone="no"?>
<!-- Created with Inkscape (http://www.inkscape.org/) -->

<svg
   xmlns:dc="http://purl.org/dc/elements/1.1/"
   xmlns:cc="http://creativecommons.org/ns#"
   xmlns:rdf="http://www.w3.org/1999/02/22-rdf-syntax-ns#"
   xmlns:svg="http://www.w3.org/2000/svg"
   xmlns="http://www.w3.org/2000/svg"
   xmlns:sodipodi="http://sodipodi.sourceforge.net/DTD/sodipodi-0.dtd"
   xmlns:inkscape="http://www.inkscape.org/namespaces/inkscape"
   width="210mm"
   height="297mm"
   viewBox="0 0 210 297"
   version="1.1"
   id="svg1273"
   inkscape:version="0.92.4 (5da689c313, 2019-01-14)"
   sodipodi:docname="UFs.svg">
  <defs
     id="defs1267" />
  <sodipodi:namedview
     id="base"
     pagecolor="#ffffff"
     bordercolor="#666666"
     borderopacity="1.0"
     inkscape:pageopacity="0.0"
     inkscape:pageshadow="2"
     inkscape:zoom="0.35"
     inkscape:cx="-45.714286"
     inkscape:cy="560"
     inkscape:document-units="mm"
     inkscape:current-layer="layer1"
     showgrid="false"
     inkscape:window-width="1366"
     inkscape:window-height="705"
     inkscape:window-x="-8"
     inkscape:window-y="-8"
     inkscape:window-maximized="1" />
  <metadata
     id="metadata1270">
    <rdf:RDF>
      <cc:Work
         rdf:about="">
        <dc:format>image/svg+xml</dc:format>
        <dc:type
           rdf:resource="http://purl.org/dc/dcmitype/StillImage" />
        <dc:title></dc:title>
      </cc:Work>
    </rdf:RDF>
  </metadata>
  <g
     inkscape:label="Camada 1"
     inkscape:groupmode="layer"
     id="layer1">
    <g
       id="g1402"
       transform="matrix(1.1867115,0,0,1.3307287,120.18689,-123.68476)">
      <path
         inkscape:connector-curvature="0"
         id="path1082"
         style="fill:none;stroke:#000000;stroke-width:0.18273889;stroke-linecap:butt;stroke-linejoin:miter;stroke-miterlimit:4;stroke-dasharray:none;stroke-opacity:1"
         d="M -96.993853,200.19107 H 72.803377 V 97.475593 h -169.79723 z" />
      <text
         id="text1088"
         style="font-variant:normal;font-weight:300;font-stretch:condensed;font-size:2.46944427px;font-family:'Fira Sans Condensed Light';-inkscape-font-specification:FiraSansCondensed-Light;writing-mode:lr-tb;fill:#000000;fill-opacity:1;fill-rule:nonzero;stroke:none;stroke-width:0.35277775"
         x="-94.060013"
         y="194.91595">
        <tspan
           id="tspan1084"
           sodipodi:role="line"
           y="194.91595"
           x="-94.060013 -93.079643 -91.859741 -90.617607 -89.901466 -88.755646 -88.291389 -87.703659 -86.552902 -85.975052 -84.732918 -83.587097 -82.344971 -81.875778 -81.288048 -80.137283 -79.559433 -78.564247 -77.614006 -76.468185 -75.860703 -74.756859 -73.606102 -73.028252 -72.03553 -71.447807 -70.227898 -68.417793 -67.948601 -67.36087 -66.210114 -65.607567 -63.948105"
           style="stroke-width:0.35277775">Fonte: Sinan; Siscel/Siclom; SIM.</tspan>
        <tspan
           id="tspan1086"
           sodipodi:role="line"
           y="198.44478"
           x="-94.060013 -92.632675 -91.412766 -90.676872 -89.531052 -89.066795 -88.479065 -87.790092 -86.834419 -86.145447 -85.557716 -84.382263 -83.236435 -82.241249 -81.021347 -80.026161 -79.438431 -78.196304 -76.976395 -76.240501 -75.662651 -74.457565 -73.464844 -72.319023 -71.076889 -69.856987 -68.861801 -68.274071 -67.031944 -65.812042 -65.224312 -64.073547 -63.495701 -62.253571 -61.10775 -59.865616 -59.277889 -58.132065 -57.544338 -56.393578 -55.815731 -54.820541 -53.870792 -52.724972 -52.117493 -51.013645 -49.862885 -49.285034 -48.29232 -47.70459 -46.484684 -44.674583 -44.086853 -42.941032 -42.22514 -41.079315 -40.491589 -39.454422 -38.338234 -37.340584 -36.135494 -35.081043 -34.041401 -33.036343 -31.851007 -30.969416 -29.853228 -29.384027 -28.796305 -27.554171 -26.334269 -25.746538 -24.595774 -23.993227 -22.333773 -21.869501 -21.281786 -20.039652 -18.893831 -18.306101 -17.301035 -16.095949 -14.890864 -13.685771 -13.098048 -11.95222 -11.364497 -10.359431 -9.1745939 -8.2930021 -7.137301"
           style="stroke-width:0.35277775">Nota: (*) Casos notifcados no Sinan e Siscel/Siclom até 30/06/2019; no SIM, de 2000 a 2018.</tspan>
      </text>
      <path
         inkscape:connector-curvature="0"
         id="path1098"
         style="fill:#ffffff;fill-opacity:1;fill-rule:nonzero;stroke:none;stroke-width:0.35277775"
         d="M -95.477967,188.37584 H 69.546887 v -83.4651 H -95.477967 Z" />
      <path
         inkscape:connector-curvature="0"
         id="path1100"
         style="fill:#ffffff;fill-opacity:1;fill-rule:evenodd;stroke:none;stroke-width:0.35277775"
         d="M -78.23419,107.30716 H 67.069327 v 67.59716 H -78.23419 Z" />
      <path
         inkscape:connector-curvature="0"
         id="path1102"
         style="fill:#77933c;fill-opacity:1;fill-rule:nonzero;stroke:none;stroke-width:0.35277775"
         d="m -77.077432,147.35872 h 1.542697 v 27.5456 h -1.542697 z m 5.371394,7.87788 h 1.542698 v 19.66772 h -1.542698 z m 5.399265,1.26718 h 1.542695 v 18.40054 h -1.542695 z m 5.371394,0.22049 h 1.542698 v 18.18005 h -1.542698 z m 5.39891,0.22048 h 1.515181 v 17.95992 h -1.515181 z m 5.371396,0.63324 h 1.542695 v 17.32633 h -1.542695 z m 5.371394,1.15711 h 1.542695 v 16.16922 h -1.542695 z m 5.39891,0.90911 h 1.515181 v 15.26046 h -1.515181 z m 5.371393,0.6611 h 1.542698 v 14.59936 h -1.542698 z m 5.371397,0.46814 h 1.542695 v 14.13087 h -1.542695 z m 5.39891,0.79869 h 1.515181 v 13.33218 h -1.515181 z m 5.371393,0.33055 h 1.542698 v 13.00163 h -1.542698 z m 5.371397,0.57856 h 1.542695 v 12.42307 h -1.542695 z m 5.3989102,0.57855 h 1.515179 v 11.84452 h -1.515179 z m 5.371745,0.0825 h 1.54269798 v 11.76197 H -1.7396238 Z m 5.371401,0.55104 h 1.54269 v 11.21093 h -1.54269 z m 5.39891,0.0825 h 1.5151798 v 11.12838 H 9.0306872 Z m 5.3713898,0.99166 h 1.5427 v 10.13672 h -1.5427 z m 5.3714,0.0275 h 1.54269 v 10.1092 h -1.54269 z m 5.39891,0.27552 h 1.51517 v 9.83368 h -1.51517 z m 5.37139,0.055 h 1.5427 v 9.77865 h -1.5427 z m 5.37139,0.44062 h 1.5427 v 9.33803 h -1.5427 z m 5.39892,0.79904 h 1.51517 v 8.53934 h -1.51517 z m 5.37139,0.24765 h 1.5427 v 8.29134 h -1.5427 z m 5.37139,0.13794 h 1.5427 v 8.1534 h -1.5427 z m 5.39892,0.0825 h 1.54269 v 8.07085 h -1.54269 z m 5.37139,0.248 h 1.54269 v 7.82285 h -1.54269 z" />
      <path
         inkscape:connector-curvature="0"
         id="path1104"
         style="fill:#7030a0;fill-opacity:1;fill-rule:nonzero;stroke:none;stroke-width:0.35277775"
         d="m -75.534735,139.61843 h 1.542697 v 35.28589 h -1.542697 z m 5.371395,3.55317 h 1.542696 v 31.73272 h -1.542696 z m 5.398911,-4.54483 h 1.515181 v 36.27755 h -1.515181 z m 5.371393,12.86368 h 1.542698 v 23.41387 h -1.542698 z m 5.371396,-14.48893 h 1.542696 v 37.9028 h -1.542696 z m 5.398911,-0.63359 h 1.515181 v 38.53639 h -1.515181 z m 5.371393,19.77778 h 1.542698 v 18.75861 h -1.542698 z m 5.371748,-0.46813 h 1.542696 v 19.22674 h -1.542696 z m 5.39891,-5.3714 h 1.542699 v 24.59849 h -1.542699 z m 5.371394,1.04669 h 1.542698 v 23.55145 h -1.542698 z m 5.371396,-6.2805 h 1.542696 v 29.83195 h -1.542696 z m 5.39891,6.19795 h 1.542699 v 23.63435 h -1.542699 z m 5.371394,-0.16545 h 1.5426982 v 23.79945 h -1.5426982 z m 5.3713942,2.50684 h 1.542698 v 21.29296 h -1.542698 z m 5.39891198,1.92793 H 1.3454182 v 19.36468 h -1.54269602 z m 5.37139502,3.96663 h 1.5427 v 15.39805 h -1.5427 z m 5.3713898,-1.76283 h 1.5427 v 17.16088 h -1.5427 z m 5.39892,2.94746 h 1.54269 v 14.21342 h -1.54269 z m 5.37139,-4.54519 h 1.5427 v 18.75861 h -1.5427 z m 5.37139,3.93912 h 1.5427 v 14.81949 h -1.5427 z m 5.39927,-3.00249 h 1.54269 v 17.82198 h -1.54269 z m 5.37139,8.48395 h 1.5427 v 9.33803 h -1.5427 z m 5.37139,-8.48395 h 1.5427 v 17.82198 h -1.5427 z m 5.39892,1.43227 h 1.54269 v 16.38971 h -1.54269 z m 5.37139,4.60023 h 1.5427 v 11.78948 h -1.5427 z m 5.39891,-3.9116 h 1.51518 v 15.70108 h -1.51518 z m 5.37139,-0.57821 h 1.5427 v 16.27964 h -1.5427 z" />
      <g
         transform="matrix(0.35277777,0,0,-0.35277777,-78.234225,174.90439)"
         id="g1106">
        <path
           inkscape:connector-curvature="0"
           id="path1108"
           style="fill:none;stroke:#868686;stroke-width:0.46799999;stroke-linecap:butt;stroke-linejoin:round;stroke-miterlimit:10;stroke-dasharray:none;stroke-opacity:1"
           d="M 0,0 V 191.614" />
      </g>
      <g
         transform="matrix(0.35277777,0,0,-0.35277777,-78.9504,174.90439)"
         id="g1110">
        <path
           inkscape:connector-curvature="0"
           id="path1112"
           style="fill:none;stroke:#868686;stroke-width:0.46799999;stroke-linecap:butt;stroke-linejoin:round;stroke-miterlimit:10;stroke-dasharray:none;stroke-opacity:1"
           d="M 0,0 H 2.03 M 0,19.13 H 2.03 M 0,38.338 H 2.03 M 0,57.469 H 2.03 M 0,76.599 H 2.03 M 0,95.807 H 2.03 M 0,114.937 H 2.03 M 0,134.145 H 2.03 M 0,153.276 H 2.03 M 0,172.484 H 2.03 M 0,191.614 h 2.03" />
      </g>
      <g
         transform="matrix(0.35277777,0,0,-0.35277777,-78.234225,174.90439)"
         id="g1114">
        <path
           inkscape:connector-curvature="0"
           id="path1116"
           style="fill:none;stroke:#868686;stroke-width:0.46799999;stroke-linecap:butt;stroke-linejoin:round;stroke-miterlimit:10;stroke-dasharray:none;stroke-opacity:1"
           d="M 0,0 H 411.884" />
      </g>
      <g
         transform="matrix(0.35277777,0,0,-0.35277777,-78.234225,174.90439)"
         id="g1118">
        <path
           inkscape:connector-curvature="0"
           id="path1120"
           style="fill:none;stroke:#868686;stroke-width:0.46799999;stroke-linecap:butt;stroke-linejoin:round;stroke-miterlimit:10;stroke-dasharray:none;stroke-opacity:1"
           d="M 0,0 V -2.108 M 15.304,0 V -2.108 M 30.53,0 V -2.108 M 45.756,0 V -2.108 M 61.06,0 V -2.108 M 76.286,0 V -2.108 M 91.512,0 V -2.108 M 106.817,0 V -2.108 M 122.043,0 V -2.108 M 137.269,0 V -2.108 M 152.573,0 V -2.108 M 167.799,0 V -2.108 M 183.025,0 V -2.108 M 198.329,0 V -2.108 M 213.555,0 V -2.108 M 228.781,0 V -2.108 M 244.085,0 V -2.108 M 259.311,0 V -2.108 M 274.537,0 V -2.108 M 289.842,0 V -2.108 M 305.068,0 V -2.108 M 320.294,0 V -2.108 M 335.598,0 V -2.108 M 350.824,0 V -2.108 M 366.05,0 V -2.108 M 381.354,0 V -2.108 M 396.58,0 V -2.108 M 411.884,0 v -2.108" />
      </g>
      <g
         transform="matrix(0.35277777,0,0,-0.35277777,-75.548493,162.85315)"
         id="g1122">
        <path
           inkscape:connector-curvature="0"
           id="path1124"
           style="fill:none;stroke:#000000;stroke-width:1.01499999;stroke-linecap:round;stroke-linejoin:round;stroke-miterlimit:10;stroke-dasharray:3.045, 4.06;stroke-dashoffset:0;stroke-opacity:1"
           d="m 0,0 h 15.304 15.226 15.226 15.304 15.226 15.305 15.226 15.226 15.304 15.226 15.226 15.304 15.226 15.226 15.304 15.226 15.226 15.304 15.227 15.226 15.304 15.226 15.226 15.304 15.226 15.226" />
      </g>
      <text
         id="text1128"
         style="font-variant:normal;font-weight:bold;font-stretch:normal;font-size:2.75455928px;font-family:Calibri;-inkscape-font-specification:Calibri-Bold;writing-mode:lr-tb;fill:#000000;fill-opacity:1;fill-rule:nonzero;stroke:none;stroke-width:0.35277775"
         x="51.403103"
         y="152.29546">
        <tspan
           id="tspan1126"
           sodipodi:role="line"
           y="152.29546"
           x="51.403103 52.94566 53.882214 55.23193 56.333752 57.022411 57.71104 58.289501 59.694317 61.099148 61.815334"
           style="stroke-width:0.35277775">Brasil 17,8</tspan>
      </text>
      <text
         id="text1154"
         style="font-variant:normal;font-weight:normal;font-stretch:normal;font-size:2.2862823px;font-family:Calibri;-inkscape-font-specification:Calibri;writing-mode:lr-tb;fill:#000000;fill-opacity:1;fill-rule:nonzero;stroke:none;stroke-width:0.35277775"
         x="-83.256157"
         y="175.56027">
        <tspan
           id="tspan1130"
           sodipodi:role="line"
           y="175.56027"
           x="-83.256157 -82.099297 -81.520866"
           style="stroke-width:0.35277775">0,0</tspan>
        <tspan
           id="tspan1132"
           sodipodi:role="line"
           y="168.79973"
           x="-84.419876 -83.263016 -82.078491 -81.527496"
           style="stroke-width:0.35277775">10,0</tspan>
        <tspan
           id="tspan1134"
           sodipodi:role="line"
           y="162.0392"
           x="-84.419876 -83.263016 -82.078491 -81.527496"
           style="stroke-width:0.35277775">20,0</tspan>
        <tspan
           id="tspan1136"
           sodipodi:role="line"
           y="155.27866"
           x="-84.419876 -83.263016 -82.078491 -81.527496"
           style="stroke-width:0.35277775">30,0</tspan>
        <tspan
           id="tspan1138"
           sodipodi:role="line"
           y="148.51813"
           x="-84.419876 -83.263016 -82.078491 -81.527496"
           style="stroke-width:0.35277775">40,0</tspan>
        <tspan
           id="tspan1140"
           sodipodi:role="line"
           y="141.75758"
           x="-84.419876 -83.263016 -82.078491 -81.527496"
           style="stroke-width:0.35277775">50,0</tspan>
        <tspan
           id="tspan1142"
           sodipodi:role="line"
           y="134.99706"
           x="-84.419876 -83.263016 -82.078491 -81.527496"
           style="stroke-width:0.35277775">60,0</tspan>
        <tspan
           id="tspan1144"
           sodipodi:role="line"
           y="128.23651"
           x="-84.419876 -83.263016 -82.078491 -81.527496"
           style="stroke-width:0.35277775">70,0</tspan>
        <tspan
           id="tspan1146"
           sodipodi:role="line"
           y="121.47598"
           x="-84.419876 -83.263016 -82.078491 -81.527496"
           style="stroke-width:0.35277775">80,0</tspan>
        <tspan
           id="tspan1148"
           sodipodi:role="line"
           y="114.71545"
           x="-84.419876 -83.263016 -82.078491 -81.527496"
           style="stroke-width:0.35277775">90,0</tspan>
        <tspan
           id="tspan1150"
           sodipodi:role="line"
           y="107.95491"
           x="-85.583595 -84.426735 -83.24221 -82.08535 -81.506691"
           style="stroke-width:0.35277775">100,0</tspan>
        <tspan
           id="tspan1152"
           sodipodi:role="line"
           y="178.54616"
           x="-76.781403 -75.542244 -71.799599 -70.47744 -65.923851 -64.684685 -60.649399 -59.327244 -55.267494 -54.082966 -49.768982 -48.722321 -44.238464 -42.999302 -39.377831 -37.423061 -34.03022 -32.075443 -28.472269 -27.233095 -23.371569 -21.416796 -17.49811 -16.313585 -12.347117 -11.107951 -6.7297235 -5.4075646 -1.2906595 -0.24399051 3.9632239 5.1477408 9.4708757 10.600293 14.818486 15.865148 19.999205 21.12863 25.214209 26.675146 30.907064 32.118786 36.22723 37.631008 41.551983 42.791149 47.004772 48.189297 52.327236 53.649395 58.102383 59.286907 62.658932 64.613708"
           style="stroke-width:0.35277775">RRAMRSAPPASCRJMSMTRNMAPEROALSEPRESSPTOGOCEDFBAPBACPIMG</tspan>
      </text>
      <text
         id="text1158"
         style="font-variant:normal;font-weight:bold;font-stretch:normal;font-size:3.22283649px;font-family:Calibri;-inkscape-font-specification:Calibri-Bold;writing-mode:lr-tb;fill:#000000;fill-opacity:1;fill-rule:nonzero;stroke:none;stroke-width:0.35277775"
         transform="rotate(-90)"
         x="-168.2124"
         y="-89.234085">
        <tspan
           id="tspan1156"
           sodipodi:role="line"
           y="-89.234085"
           x="-168.2124 -166.86267 -165.29251 -163.86028 -162.26175 -161.57207 -159.83658 -158.21129 -157.49518 -155.75969 -154.16212 -153.06024 -151.43497 -150.08524 -148.76323 -147.1647 -145.4292 -144.76788 -143.77654 -142.04103 -140.30554 -139.14886 -138.45917 -136.83389 -135.20862 -133.58366 -132.72961 -131.10434 -129.47906 -127.85411 -127.08257 -125.34739 -123.74886 -122.01336 -121.15931"
           style="stroke-width:0.35277775">Taxa de detecção (por 100.000 hab.)</tspan>
      </text>
      <path
         inkscape:connector-curvature="0"
         id="path1160"
         style="fill:#77933c;fill-opacity:1;fill-rule:evenodd;stroke:none;stroke-width:0.35277775"
         d="m -22.371478,183.49869 h 1.762832 v 1.79035 h -1.762832 z" />
      <text
         id="text1164"
         style="font-variant:normal;font-weight:normal;font-stretch:normal;font-size:3.22283649px;font-family:Calibri;-inkscape-font-specification:Calibri;writing-mode:lr-tb;fill:#000000;fill-opacity:1;fill-rule:nonzero;stroke:none;stroke-width:0.35277775"
         x="-19.818888"
         y="185.3127">
        <tspan
           id="tspan1162"
           sodipodi:role="line"
           y="185.3127"
           x="-19.818888 -17.753046"
           style="stroke-width:0.35277775">UF</tspan>
      </text>
      <path
         inkscape:connector-curvature="0"
         id="path1166"
         style="fill:#7030a0;fill-opacity:1;fill-rule:evenodd;stroke:none;stroke-width:0.35277775"
         d="m -13.997592,183.49869 h 1.762831 v 1.79035 h -1.762831 z" />
      <text
         id="text1170"
         style="font-variant:normal;font-weight:normal;font-stretch:normal;font-size:3.22283649px;font-family:Calibri;-inkscape-font-specification:Calibri;writing-mode:lr-tb;fill:#000000;fill-opacity:1;fill-rule:nonzero;stroke:none;stroke-width:0.35277775"
         x="-11.440944"
         y="185.3127">
        <tspan
           id="tspan1168"
           sodipodi:role="line"
           y="185.3127"
           x="-11.440944 -9.7331572 -8.1894255 -6.509356 -5.7655206 -4.6913552 -3.1476159"
           style="stroke-width:0.35277775">Capital</tspan>
      </text>
    </g>
  </g>
</svg>
